<svg width="32" height="32" viewBox="0 0 32 32" fill="none" xmlns="http://www.w3.org/2000/svg">
<path d="M0 10C0 4.47716 4.47715 0 10 0H21.9862C27.509 0 31.9862 4.47715 31.9862 10V21.9862C31.9862 27.509 27.509 31.9862 21.9862 31.9862H10C4.47716 31.9862 0 27.509 0 21.9862V10Z" fill="#2DD4BF"/>
<path d="M20.8838 13.5293C20.8838 14.332 20.6992 15.0439 20.3301 15.665C19.9668 16.2803 19.4482 16.7637 18.7744 17.1152C18.1006 17.4609 17.2979 17.6338 16.3662 17.6338H13.29V21.9932H10.6973V9.60938H16.2607C17.7432 9.60938 18.8828 9.95215 19.6797 10.6377C20.4824 11.3174 20.8838 12.2812 20.8838 13.5293ZM18.2734 13.5732C18.2734 12.2725 17.5059 11.6221 15.9707 11.6221H13.29V15.6387H16.041C16.7559 15.6387 17.3066 15.4629 17.6934 15.1113C18.0801 14.7539 18.2734 14.2412 18.2734 13.5732Z" fill="black"/>
</svg>
